<?xml version="1.0" encoding="UTF-8" standalone="no"?>
<!DOCTYPE svg PUBLIC "-//W3C//DTD SVG 1.1//EN"
 "http://www.w3.org/Graphics/SVG/1.1/DTD/svg11.dtd">
<!-- Generated by graphviz version 2.40.1 (20161225.0304)
 -->
<!-- Title: core Pages: 1 -->
<svg width="542pt" height="260pt"
 viewBox="0.00 0.00 542.09 260.00" xmlns="http://www.w3.org/2000/svg" xmlns:xlink="http://www.w3.org/1999/xlink">
<g id="graph0" class="graph" transform="scale(1 1) rotate(0) translate(4 256)">
<title>core</title>
<polygon fill="#ffffff" stroke="transparent" points="-4,4 -4,-256 538.09,-256 538.09,4 -4,4"/>
<!-- core&#45;reporting -->
<g id="node1" class="node">
<title>core&#45;reporting</title>
<ellipse fill="none" stroke="#000000" cx="285.9452" cy="-234" rx="61.1893" ry="18"/>
<text text-anchor="middle" x="285.9452" y="-230.3" font-family="Times,serif" font-size="14.00" fill="#000000">core&#45;reporting</text>
</g>
<!-- core&#45;storage -->
<g id="node2" class="node">
<title>core&#45;storage</title>
<ellipse fill="none" stroke="#000000" cx="53.9452" cy="-162" rx="53.8905" ry="18"/>
<text text-anchor="middle" x="53.9452" y="-158.3" font-family="Times,serif" font-size="14.00" fill="#000000">core&#45;storage</text>
</g>
<!-- core&#45;storage&#45;&gt;core&#45;reporting -->
<g id="edge1" class="edge">
<title>core&#45;storage&#45;&gt;core&#45;reporting</title>
<path fill="none" stroke="#000000" d="M93.5638,-174.2954C132.345,-186.331 191.6297,-204.7297 234.1337,-217.9206"/>
<polygon fill="#000000" stroke="#000000" points="233.155,-221.2815 243.7431,-220.9028 235.2299,-214.596 233.155,-221.2815"/>
</g>
<!-- core&#45;messaging -->
<g id="node3" class="node">
<title>core&#45;messaging</title>
<ellipse fill="none" stroke="#000000" cx="191.9452" cy="-162" rx="66.0889" ry="18"/>
<text text-anchor="middle" x="191.9452" y="-158.3" font-family="Times,serif" font-size="14.00" fill="#000000">core&#45;messaging</text>
</g>
<!-- core&#45;messaging&#45;&gt;core&#45;reporting -->
<g id="edge2" class="edge">
<title>core&#45;messaging&#45;&gt;core&#45;reporting</title>
<path fill="none" stroke="#000000" d="M214.2219,-179.063C226.6308,-188.5677 242.254,-200.5344 255.7488,-210.8708"/>
<polygon fill="#000000" stroke="#000000" points="253.7613,-213.7573 263.8284,-217.0595 258.0179,-208.2001 253.7613,-213.7573"/>
</g>
<!-- core&#45;database -->
<g id="node4" class="node">
<title>core&#45;database</title>
<ellipse fill="none" stroke="#000000" cx="474.9452" cy="-162" rx="59.2899" ry="18"/>
<text text-anchor="middle" x="474.9452" y="-158.3" font-family="Times,serif" font-size="14.00" fill="#000000">core&#45;database</text>
</g>
<!-- core&#45;database&#45;&gt;core&#45;reporting -->
<g id="edge3" class="edge">
<title>core&#45;database&#45;&gt;core&#45;reporting</title>
<path fill="none" stroke="#000000" d="M437.6049,-176.2249C407.6744,-187.627 365.4902,-203.6971 333.2074,-215.9954"/>
<polygon fill="#000000" stroke="#000000" points="331.6298,-212.8509 323.5309,-219.6816 334.1218,-219.3923 331.6298,-212.8509"/>
</g>
<!-- core&#45;types -->
<g id="node5" class="node">
<title>core&#45;types</title>
<ellipse fill="none" stroke="#000000" cx="443.9452" cy="-234" rx="47.3916" ry="18"/>
<text text-anchor="middle" x="443.9452" y="-230.3" font-family="Times,serif" font-size="14.00" fill="#000000">core&#45;types</text>
</g>
<!-- core&#45;database&#45;&gt;core&#45;types -->
<g id="edge4" class="edge">
<title>core&#45;database&#45;&gt;core&#45;types</title>
<path fill="none" stroke="#000000" d="M467.1226,-180.1686C463.6452,-188.2453 459.478,-197.9239 455.642,-206.8332"/>
<polygon fill="#000000" stroke="#000000" points="452.3979,-205.5176 451.6579,-216.0866 458.8273,-208.2859 452.3979,-205.5176"/>
</g>
<!-- core&#45;rest -->
<g id="node6" class="node">
<title>core&#45;rest</title>
<ellipse fill="none" stroke="#000000" cx="355.9452" cy="-162" rx="41.6928" ry="18"/>
<text text-anchor="middle" x="355.9452" y="-158.3" font-family="Times,serif" font-size="14.00" fill="#000000">core&#45;rest</text>
</g>
<!-- core&#45;rest&#45;&gt;core&#45;reporting -->
<g id="edge5" class="edge">
<title>core&#45;rest&#45;&gt;core&#45;reporting</title>
<path fill="none" stroke="#000000" d="M339.7099,-178.6992C330.9557,-187.7035 319.978,-198.9948 310.2283,-209.0231"/>
<polygon fill="#000000" stroke="#000000" points="307.5305,-206.7771 303.0691,-216.3868 312.5494,-211.6566 307.5305,-206.7771"/>
</g>
<!-- core&#45;rest&#45;&gt;core&#45;types -->
<g id="edge6" class="edge">
<title>core&#45;rest&#45;&gt;core&#45;types</title>
<path fill="none" stroke="#000000" d="M375.4753,-177.9791C387.3842,-187.7228 402.7997,-200.3355 415.9875,-211.1255"/>
<polygon fill="#000000" stroke="#000000" points="413.9037,-213.9428 423.8597,-217.5664 418.3364,-208.5251 413.9037,-213.9428"/>
</g>
<!-- core&#45;init -->
<g id="node7" class="node">
<title>core&#45;init</title>
<ellipse fill="none" stroke="#000000" cx="285.9452" cy="-90" rx="40.0939" ry="18"/>
<text text-anchor="middle" x="285.9452" y="-86.3" font-family="Times,serif" font-size="14.00" fill="#000000">core&#45;init</text>
</g>
<!-- core&#45;init&#45;&gt;core&#45;reporting -->
<g id="edge11" class="edge">
<title>core&#45;init&#45;&gt;core&#45;reporting</title>
<path fill="none" stroke="#000000" d="M285.9452,-108.2377C285.9452,-132.799 285.9452,-176.7526 285.9452,-205.6459"/>
<polygon fill="#000000" stroke="#000000" points="282.4453,-205.9103 285.9452,-215.9104 289.4453,-205.9104 282.4453,-205.9103"/>
</g>
<!-- core&#45;init&#45;&gt;core&#45;storage -->
<g id="edge7" class="edge">
<title>core&#45;init&#45;&gt;core&#45;storage</title>
<path fill="none" stroke="#000000" d="M252.7053,-100.3158C213.6013,-112.4515 148.3163,-132.7124 103.2985,-146.6834"/>
<polygon fill="#000000" stroke="#000000" points="102.2479,-143.3448 93.7347,-149.6515 104.3228,-150.0302 102.2479,-143.3448"/>
</g>
<!-- core&#45;init&#45;&gt;core&#45;messaging -->
<g id="edge8" class="edge">
<title>core&#45;init&#45;&gt;core&#45;messaging</title>
<path fill="none" stroke="#000000" d="M265.5486,-105.6229C252.9101,-115.3035 236.4447,-127.9153 222.2928,-138.7551"/>
<polygon fill="#000000" stroke="#000000" points="220.0846,-136.0377 214.274,-144.8971 224.3411,-141.5948 220.0846,-136.0377"/>
</g>
<!-- core&#45;init&#45;&gt;core&#45;database -->
<g id="edge9" class="edge">
<title>core&#45;init&#45;&gt;core&#45;database</title>
<path fill="none" stroke="#000000" d="M316.732,-101.7283C347.0407,-113.2745 393.7166,-131.0558 428.5269,-144.3169"/>
<polygon fill="#000000" stroke="#000000" points="427.4162,-147.639 438.0071,-147.9284 429.9083,-141.0976 427.4162,-147.639"/>
</g>
<!-- core&#45;init&#45;&gt;core&#45;rest -->
<g id="edge10" class="edge">
<title>core&#45;init&#45;&gt;core&#45;rest</title>
<path fill="none" stroke="#000000" d="M302.1806,-106.6992C311.2805,-116.0592 322.7832,-127.8905 332.8116,-138.2055"/>
<polygon fill="#000000" stroke="#000000" points="330.3176,-140.6611 339.7979,-145.3913 335.3366,-135.7816 330.3176,-140.6611"/>
</g>
<!-- core -->
<g id="node8" class="node">
<title>core</title>
<ellipse fill="none" stroke="#ff0000" cx="285.9452" cy="-18" rx="27" ry="18"/>
<text text-anchor="middle" x="285.9452" y="-14.3" font-family="Times,serif" font-size="14.00" fill="#000000">core</text>
</g>
<!-- core&#45;&gt;core&#45;init -->
<g id="edge12" class="edge">
<title>core&#45;&gt;core&#45;init</title>
<path fill="none" stroke="#ff0000" d="M285.9452,-36.1686C285.9452,-43.869 285.9452,-53.0257 285.9452,-61.5834"/>
<polygon fill="#ff0000" stroke="#ff0000" points="282.4453,-61.5867 285.9452,-71.5867 289.4453,-61.5868 282.4453,-61.5867"/>
</g>
</g>
</svg>
